<svg width="28" height="28" viewBox="0 0 28 28" fill="none" xmlns="http://www.w3.org/2000/svg">
<path fill-rule="evenodd" clip-rule="evenodd" d="M14 0C6.26801 0 0 6.26801 0 14C0 21.732 6.26801 28 14 28C21.732 28 28 21.732 28 14C28 6.26801 21.732 0 14 0ZM10.6186 7.69215C10.6186 8.6267 9.80852 9.3843 8.80928 9.3843C7.81004 9.3843 7 8.6267 7 7.69215C7 6.7576 7.81004 6 8.80928 6C9.80852 6 10.6186 6.7576 10.6186 7.69215ZM7.24742 10.6281H10.3402V20H7.24742V10.6281ZM12.2268 10.6281H15.3196V11.8305C15.8387 11.1701 16.8354 10.4401 18.4433 10.4401C21.1508 10.4401 21.9738 11.8954 22 15.0537V20H18.9072C18.9072 19.3889 18.903 18.7745 18.8987 18.1604V18.1601V18.1598V18.1597V18.1595C18.8927 17.2883 18.8867 16.4175 18.8928 15.5571C18.9008 14.4345 18.911 12.9855 17.2062 12.9855C15.6977 12.9855 15.3196 14.0976 15.3196 15.2049V20H12.2268V10.6281Z" fill="#667085"/>
</svg>
