<svg width="237" height="401" viewBox="0 0 237 401" fill="none" xmlns="http://www.w3.org/2000/svg">
<path fill-rule="evenodd" clip-rule="evenodd" d="M174.708 2.64037C173.765 0.63313 171.368 -0.223499 169.366 0.73088L158.015 6.14236L128.213 20.6374L2.2505 81.902C0.873801 82.5716 2.99785e-05 83.9682 2.9129e-05 85.4991L0 137.997L1.48991e-05 267.374C1.51105e-05 269.209 1.2492 270.809 3.02987 271.255L45.0299 281.755C47.5544 282.386 50 280.476 50 277.874V206.469C50 203.946 52.3063 202.054 54.7803 202.546L174.78 226.412C176.652 226.785 178 228.427 178 230.335V259.023C178 260.563 177.116 261.966 175.727 262.631L49.4485 323.06C48.5189 323.505 47.4535 323.573 46.4743 323.252L5.24751 309.72C2.66078 308.87 1.52588e-05 310.798 1.52588e-05 313.52V396.629C1.52588e-05 399.578 3.0822 401.513 5.73813 400.232L225.738 294.091C227.121 293.424 228 292.024 228 290.489V189.28C228 187.372 226.652 185.729 224.78 185.357L171.219 174.71C167.39 173.948 166.808 168.714 170.377 167.13L192.207 157.443L233.868 137.955C235.871 137.018 236.734 134.633 235.793 132.631L174.708 2.64037ZM167.144 113.353C169.157 112.424 170.031 110.034 169.091 108.026L151.064 69.488C150.12 67.4691 147.707 66.6115 145.7 67.5814L52.2594 112.741C50.8778 113.408 50 114.808 50 116.342V147.128C50 149.125 51.4736 150.817 53.4522 151.09L76.8398 154.323C77.5974 154.428 78.3691 154.314 79.0635 153.993L167.144 113.353Z" fill="white"/>
</svg>
